<mxfile host="app.diagrams.net" modified="2023-05-21T09:23:17.250Z" agent="Mozilla/5.0 (Windows NT 10.0; Win64; x64) AppleWebKit/537.36 (KHTML, like Gecko) Chrome/113.0.0.0 Safari/537.36" etag="xHODpx0Ak3cUFFO7NJ8W" version="21.3.2" type="device">
  <diagram name="Page-1" id="2YBvvXClWsGukQMizWep">
    <mxGraphModel dx="1900" dy="581" grid="1" gridSize="10" guides="1" tooltips="1" connect="1" arrows="1" fold="1" page="1" pageScale="1" pageWidth="850" pageHeight="1100" math="0" shadow="0">
      <root>
        <mxCell id="0" />
        <mxCell id="1" parent="0" />
        <mxCell id="NEC7U_XfEFCwoZO9r8Hp-1" value="g:GameView" style="shape=umlLifeline;perimeter=lifelinePerimeter;whiteSpace=wrap;html=1;container=0;dropTarget=0;collapsible=0;recursiveResize=0;outlineConnect=0;portConstraint=eastwest;newEdgeStyle={&quot;edgeStyle&quot;:&quot;elbowEdgeStyle&quot;,&quot;elbow&quot;:&quot;vertical&quot;,&quot;curved&quot;:0,&quot;rounded&quot;:0};" parent="1" vertex="1">
          <mxGeometry x="40" y="10" width="100" height="340" as="geometry" />
        </mxCell>
        <mxCell id="NEC7U_XfEFCwoZO9r8Hp-2" value="" style="html=1;points=[];perimeter=orthogonalPerimeter;outlineConnect=0;targetShapes=umlLifeline;portConstraint=eastwest;newEdgeStyle={&quot;edgeStyle&quot;:&quot;elbowEdgeStyle&quot;,&quot;elbow&quot;:&quot;vertical&quot;,&quot;curved&quot;:0,&quot;rounded&quot;:0};" parent="NEC7U_XfEFCwoZO9r8Hp-1" vertex="1">
          <mxGeometry x="45" y="70" width="10" height="260" as="geometry" />
        </mxCell>
        <mxCell id="NEC7U_XfEFCwoZO9r8Hp-3" value="keyPressed" style="html=1;verticalAlign=bottom;startArrow=oval;endArrow=block;startSize=8;edgeStyle=elbowEdgeStyle;elbow=vertical;curved=0;rounded=0;" parent="NEC7U_XfEFCwoZO9r8Hp-1" target="NEC7U_XfEFCwoZO9r8Hp-2" edge="1">
          <mxGeometry relative="1" as="geometry">
            <mxPoint x="-30" y="70" as="sourcePoint" />
          </mxGeometry>
        </mxCell>
        <mxCell id="NEC7U_XfEFCwoZO9r8Hp-4" value="c:Controller" style="shape=umlLifeline;perimeter=lifelinePerimeter;whiteSpace=wrap;html=1;container=0;dropTarget=0;collapsible=0;recursiveResize=0;outlineConnect=0;portConstraint=eastwest;newEdgeStyle={&quot;edgeStyle&quot;:&quot;elbowEdgeStyle&quot;,&quot;elbow&quot;:&quot;vertical&quot;,&quot;curved&quot;:0,&quot;rounded&quot;:0};" parent="1" vertex="1">
          <mxGeometry x="280" y="40" width="100" height="280" as="geometry" />
        </mxCell>
        <mxCell id="NEC7U_XfEFCwoZO9r8Hp-5" value="" style="html=1;points=[];perimeter=orthogonalPerimeter;outlineConnect=0;targetShapes=umlLifeline;portConstraint=eastwest;newEdgeStyle={&quot;edgeStyle&quot;:&quot;elbowEdgeStyle&quot;,&quot;elbow&quot;:&quot;vertical&quot;,&quot;curved&quot;:0,&quot;rounded&quot;:0};" parent="NEC7U_XfEFCwoZO9r8Hp-4" vertex="1">
          <mxGeometry x="45" y="80" width="10" height="70" as="geometry" />
        </mxCell>
        <mxCell id="NEC7U_XfEFCwoZO9r8Hp-6" value="player:Player" style="shape=umlLifeline;perimeter=lifelinePerimeter;whiteSpace=wrap;html=1;container=0;dropTarget=0;collapsible=0;recursiveResize=0;outlineConnect=0;portConstraint=eastwest;newEdgeStyle={&quot;edgeStyle&quot;:&quot;elbowEdgeStyle&quot;,&quot;elbow&quot;:&quot;vertical&quot;,&quot;curved&quot;:0,&quot;rounded&quot;:0};" parent="1" vertex="1">
          <mxGeometry x="460" y="40" width="100" height="280" as="geometry" />
        </mxCell>
        <mxCell id="NEC7U_XfEFCwoZO9r8Hp-7" value="" style="html=1;points=[];perimeter=orthogonalPerimeter;outlineConnect=0;targetShapes=umlLifeline;portConstraint=eastwest;newEdgeStyle={&quot;edgeStyle&quot;:&quot;elbowEdgeStyle&quot;,&quot;elbow&quot;:&quot;vertical&quot;,&quot;curved&quot;:0,&quot;rounded&quot;:0};" parent="NEC7U_XfEFCwoZO9r8Hp-6" vertex="1">
          <mxGeometry x="45" y="90" width="10" height="60" as="geometry" />
        </mxCell>
        <mxCell id="NEC7U_XfEFCwoZO9r8Hp-8" value="alt" style="shape=umlFrame;whiteSpace=wrap;html=1;pointerEvents=0;" parent="1" vertex="1">
          <mxGeometry x="-20" y="110" width="740" height="210" as="geometry" />
        </mxCell>
        <mxCell id="NEC7U_XfEFCwoZO9r8Hp-10" value="User" style="shape=umlActor;verticalLabelPosition=bottom;verticalAlign=top;html=1;outlineConnect=0;" parent="1" vertex="1">
          <mxGeometry x="-30" y="20" width="30" height="60" as="geometry" />
        </mxCell>
        <mxCell id="NEC7U_XfEFCwoZO9r8Hp-11" value="" style="html=1;verticalAlign=bottom;endArrow=open;dashed=1;endSize=8;edgeStyle=elbowEdgeStyle;elbow=vertical;curved=0;rounded=0;" parent="1" edge="1">
          <mxGeometry relative="1" as="geometry">
            <mxPoint y="330" as="targetPoint" />
            <Array as="points">
              <mxPoint x="110" y="330.5" />
              <mxPoint x="70" y="330.5" />
            </Array>
            <mxPoint x="90" y="330" as="sourcePoint" />
          </mxGeometry>
        </mxCell>
        <mxCell id="NEC7U_XfEFCwoZO9r8Hp-12" value="&lt;br&gt;" style="edgeLabel;html=1;align=center;verticalAlign=middle;resizable=0;points=[];" parent="NEC7U_XfEFCwoZO9r8Hp-11" vertex="1" connectable="0">
          <mxGeometry x="-0.1531" y="-4" relative="1" as="geometry">
            <mxPoint x="-12" y="4" as="offset" />
          </mxGeometry>
        </mxCell>
        <mxCell id="NEC7U_XfEFCwoZO9r8Hp-13" value="" style="endArrow=none;dashed=1;html=1;rounded=0;entryX=1.002;entryY=0.287;entryDx=0;entryDy=0;entryPerimeter=0;" parent="1" edge="1">
          <mxGeometry width="50" height="50" relative="1" as="geometry">
            <mxPoint x="-20" y="210" as="sourcePoint" />
            <mxPoint x="721" y="210" as="targetPoint" />
            <Array as="points" />
          </mxGeometry>
        </mxCell>
        <mxCell id="NEC7U_XfEFCwoZO9r8Hp-17" value="[pressed ==&#39;p&#39;]" style="text;html=1;strokeColor=none;fillColor=none;align=center;verticalAlign=middle;whiteSpace=wrap;rounded=0;" parent="1" vertex="1">
          <mxGeometry x="-20" y="150" width="110" height="30" as="geometry" />
        </mxCell>
        <mxCell id="NEC7U_XfEFCwoZO9r8Hp-18" value="[pressed ==&#39;g&#39;]" style="text;html=1;strokeColor=none;fillColor=none;align=center;verticalAlign=middle;whiteSpace=wrap;rounded=0;" parent="1" vertex="1">
          <mxGeometry x="-20" y="235" width="110" height="30" as="geometry" />
        </mxCell>
        <mxCell id="NEC7U_XfEFCwoZO9r8Hp-19" value="pierce(&quot;player&quot;)" style="html=1;verticalAlign=bottom;endArrow=block;edgeStyle=elbowEdgeStyle;elbow=vertical;curved=0;rounded=0;" parent="1" edge="1">
          <mxGeometry relative="1" as="geometry">
            <mxPoint x="90" y="130" as="sourcePoint" />
            <Array as="points">
              <mxPoint x="245" y="130" />
              <mxPoint x="305" y="140" />
              <mxPoint x="185" y="120" />
            </Array>
            <mxPoint x="330" y="130" as="targetPoint" />
          </mxGeometry>
        </mxCell>
        <mxCell id="NEC7U_XfEFCwoZO9r8Hp-20" value="Pierce" style="html=1;verticalAlign=bottom;endArrow=block;edgeStyle=elbowEdgeStyle;elbow=vertical;curved=0;rounded=0;" parent="1" edge="1">
          <mxGeometry relative="1" as="geometry">
            <mxPoint x="330" y="140" as="sourcePoint" />
            <Array as="points">
              <mxPoint x="485" y="140" />
              <mxPoint x="545" y="150" />
              <mxPoint x="425" y="130" />
            </Array>
            <mxPoint x="510" y="140" as="targetPoint" />
          </mxGeometry>
        </mxCell>
        <mxCell id="NEC7U_XfEFCwoZO9r8Hp-21" value="" style="html=1;verticalAlign=bottom;endArrow=open;dashed=1;endSize=8;edgeStyle=elbowEdgeStyle;elbow=vertical;curved=0;rounded=0;" parent="1" edge="1">
          <mxGeometry relative="1" as="geometry">
            <mxPoint x="90" y="180" as="targetPoint" />
            <Array as="points">
              <mxPoint x="200" y="180.5" />
              <mxPoint x="160" y="180.5" />
            </Array>
            <mxPoint x="325" y="180.5" as="sourcePoint" />
          </mxGeometry>
        </mxCell>
        <mxCell id="NEC7U_XfEFCwoZO9r8Hp-22" value="&lt;br&gt;" style="edgeLabel;html=1;align=center;verticalAlign=middle;resizable=0;points=[];" parent="NEC7U_XfEFCwoZO9r8Hp-21" vertex="1" connectable="0">
          <mxGeometry x="-0.1531" y="-4" relative="1" as="geometry">
            <mxPoint x="-12" y="4" as="offset" />
          </mxGeometry>
        </mxCell>
        <mxCell id="NEC7U_XfEFCwoZO9r8Hp-23" value="" style="html=1;verticalAlign=bottom;endArrow=open;dashed=1;endSize=8;edgeStyle=elbowEdgeStyle;elbow=vertical;curved=0;rounded=0;" parent="1" edge="1">
          <mxGeometry relative="1" as="geometry">
            <mxPoint x="325" y="164.5" as="targetPoint" />
            <Array as="points">
              <mxPoint x="435" y="165" />
              <mxPoint x="395" y="165" />
            </Array>
            <mxPoint x="510" y="165" as="sourcePoint" />
          </mxGeometry>
        </mxCell>
        <mxCell id="NEC7U_XfEFCwoZO9r8Hp-24" value="&lt;br&gt;" style="edgeLabel;html=1;align=center;verticalAlign=middle;resizable=0;points=[];" parent="NEC7U_XfEFCwoZO9r8Hp-23" vertex="1" connectable="0">
          <mxGeometry x="-0.1531" y="-4" relative="1" as="geometry">
            <mxPoint x="-12" y="4" as="offset" />
          </mxGeometry>
        </mxCell>
        <mxCell id="NEC7U_XfEFCwoZO9r8Hp-25" value="success" style="edgeLabel;html=1;align=center;verticalAlign=middle;resizable=0;points=[];" parent="NEC7U_XfEFCwoZO9r8Hp-23" vertex="1" connectable="0">
          <mxGeometry x="-0.021" y="-1" relative="1" as="geometry">
            <mxPoint y="-4" as="offset" />
          </mxGeometry>
        </mxCell>
        <mxCell id="NEC7U_XfEFCwoZO9r8Hp-26" value="" style="html=1;points=[];perimeter=orthogonalPerimeter;outlineConnect=0;targetShapes=umlLifeline;portConstraint=eastwest;newEdgeStyle={&quot;edgeStyle&quot;:&quot;elbowEdgeStyle&quot;,&quot;elbow&quot;:&quot;vertical&quot;,&quot;curved&quot;:0,&quot;rounded&quot;:0};" parent="1" vertex="1">
          <mxGeometry x="325" y="225" width="10" height="70" as="geometry" />
        </mxCell>
        <mxCell id="NEC7U_XfEFCwoZO9r8Hp-27" value="" style="html=1;points=[];perimeter=orthogonalPerimeter;outlineConnect=0;targetShapes=umlLifeline;portConstraint=eastwest;newEdgeStyle={&quot;edgeStyle&quot;:&quot;elbowEdgeStyle&quot;,&quot;elbow&quot;:&quot;vertical&quot;,&quot;curved&quot;:0,&quot;rounded&quot;:0};" parent="1" vertex="1">
          <mxGeometry x="505" y="225" width="10" height="70" as="geometry" />
        </mxCell>
        <mxCell id="NEC7U_XfEFCwoZO9r8Hp-28" value="glue(&quot;player&quot;)" style="html=1;verticalAlign=bottom;endArrow=block;edgeStyle=elbowEdgeStyle;elbow=vertical;curved=0;rounded=0;" parent="1" edge="1">
          <mxGeometry relative="1" as="geometry">
            <mxPoint x="90" y="240" as="sourcePoint" />
            <Array as="points">
              <mxPoint x="245" y="240" />
              <mxPoint x="305" y="250" />
              <mxPoint x="185" y="230" />
            </Array>
            <mxPoint x="330" y="240" as="targetPoint" />
          </mxGeometry>
        </mxCell>
        <mxCell id="NEC7U_XfEFCwoZO9r8Hp-29" value="Glue" style="html=1;verticalAlign=bottom;endArrow=block;edgeStyle=elbowEdgeStyle;elbow=vertical;curved=0;rounded=0;" parent="1" edge="1">
          <mxGeometry relative="1" as="geometry">
            <mxPoint x="335" y="249.5" as="sourcePoint" />
            <Array as="points">
              <mxPoint x="490" y="249.5" />
              <mxPoint x="550" y="259.5" />
              <mxPoint x="430" y="239.5" />
            </Array>
            <mxPoint x="515" y="249.5" as="targetPoint" />
          </mxGeometry>
        </mxCell>
        <mxCell id="NEC7U_XfEFCwoZO9r8Hp-30" value="" style="html=1;verticalAlign=bottom;endArrow=open;dashed=1;endSize=8;edgeStyle=elbowEdgeStyle;elbow=vertical;curved=0;rounded=0;" parent="1" edge="1">
          <mxGeometry relative="1" as="geometry">
            <mxPoint x="330" y="270" as="targetPoint" />
            <Array as="points">
              <mxPoint x="440" y="270.5" />
              <mxPoint x="400" y="270.5" />
            </Array>
            <mxPoint x="510" y="270" as="sourcePoint" />
          </mxGeometry>
        </mxCell>
        <mxCell id="NEC7U_XfEFCwoZO9r8Hp-31" value="&lt;br&gt;" style="edgeLabel;html=1;align=center;verticalAlign=middle;resizable=0;points=[];" parent="NEC7U_XfEFCwoZO9r8Hp-30" vertex="1" connectable="0">
          <mxGeometry x="-0.1531" y="-4" relative="1" as="geometry">
            <mxPoint x="-12" y="4" as="offset" />
          </mxGeometry>
        </mxCell>
        <mxCell id="NEC7U_XfEFCwoZO9r8Hp-32" value="success" style="edgeLabel;html=1;align=center;verticalAlign=middle;resizable=0;points=[];" parent="NEC7U_XfEFCwoZO9r8Hp-30" vertex="1" connectable="0">
          <mxGeometry x="-0.021" y="-1" relative="1" as="geometry">
            <mxPoint as="offset" />
          </mxGeometry>
        </mxCell>
        <mxCell id="NEC7U_XfEFCwoZO9r8Hp-33" value="" style="html=1;verticalAlign=bottom;endArrow=open;dashed=1;endSize=8;edgeStyle=elbowEdgeStyle;elbow=vertical;curved=0;rounded=0;" parent="1" edge="1">
          <mxGeometry relative="1" as="geometry">
            <mxPoint x="90" y="284.5" as="targetPoint" />
            <Array as="points">
              <mxPoint x="200" y="285" />
              <mxPoint x="160" y="285" />
            </Array>
            <mxPoint x="325" y="285" as="sourcePoint" />
          </mxGeometry>
        </mxCell>
        <mxCell id="NEC7U_XfEFCwoZO9r8Hp-34" value="&lt;br&gt;" style="edgeLabel;html=1;align=center;verticalAlign=middle;resizable=0;points=[];" parent="NEC7U_XfEFCwoZO9r8Hp-33" vertex="1" connectable="0">
          <mxGeometry x="-0.1531" y="-4" relative="1" as="geometry">
            <mxPoint x="-12" y="4" as="offset" />
          </mxGeometry>
        </mxCell>
        <mxCell id="3pfFBeNgcBYg_8Yz_jhs-1" value="playerplays" style="shape=umlFrame;whiteSpace=wrap;html=1;pointerEvents=0;width=100;height=15;" vertex="1" parent="1">
          <mxGeometry x="-80" width="840" height="360" as="geometry" />
        </mxCell>
      </root>
    </mxGraphModel>
  </diagram>
</mxfile>
